# xmcd
#
# Track frame offsets:
#	150
#	14571
#	49628
#	87721
#	122680
#	151106
#
# Disc length: 2228 seconds
#
# Revision: 1
# Processed by: cddbd v1.5.2PL0 Copyright (c) Steve Scherf et al.
# Submitted via: audiograbber 1.83.01
#
DISCID=4408b206
DTITLE=Rockefeller - Do it 2nite (Maxi)
DYEAR=1900
DGENRE=Pop
TTITLE0=Do it 2nite (Origina Radio Mix)
TTITLE1=Do it 2nite (Original Club Mix)
TTITLE2=Do it 2nite (Olav Basoski Remix)
TTITLE3=Do it 2nite (Ian Carey Remix)
TTITLE4=Do it 2nite (Beach Bump Remix)
TTITLE5=Do it 2nite (Space Cowboys Edit)
EXTD=
EXTT0=
EXTT1=
EXTT2=
EXTT3=
EXTT4=
EXTT5=
PLAYORDER=
